<?xml version="1.0" encoding="UTF-8" standalone="no"?>
<!-- Generator: Adobe Illustrator 19.0.0, SVG Export Plug-In . SVG Version: 6.00 Build 0)  -->

<svg
   xmlns:dc="http://purl.org/dc/elements/1.1/"
   xmlns:cc="http://creativecommons.org/ns#"
   xmlns:rdf="http://www.w3.org/1999/02/22-rdf-syntax-ns#"
   xmlns:svg="http://www.w3.org/2000/svg"
   xmlns="http://www.w3.org/2000/svg"
   xmlns:sodipodi="http://sodipodi.sourceforge.net/DTD/sodipodi-0.dtd"
   xmlns:inkscape="http://www.inkscape.org/namespaces/inkscape"
   version="1.1"
   id="Layer_1"
   x="0px"
   y="0px"
   width="500px"
   height="500px"
   viewBox="-495.7 120.8 500 500"
   style="enable-background:new -495.7 120.8 500 500;"
   xml:space="preserve"
   inkscape:version="0.91 r13725"
   sodipodi:docname="navi_toc.svg"><metadata
   id="metadata4147"><rdf:RDF><cc:Work
       rdf:about=""><dc:format>image/svg+xml</dc:format><dc:type
         rdf:resource="http://purl.org/dc/dcmitype/StillImage" /></cc:Work></rdf:RDF></metadata><defs
   id="defs4145" /><sodipodi:namedview
   pagecolor="#ffffff"
   bordercolor="#666666"
   borderopacity="1"
   objecttolerance="10"
   gridtolerance="10"
   guidetolerance="10"
   inkscape:pageopacity="0"
   inkscape:pageshadow="2"
   inkscape:window-width="1920"
   inkscape:window-height="1029"
   id="namedview4143"
   showgrid="false"
   inkscape:zoom="0.053375"
   inkscape:cx="-868.11936"
   inkscape:cy="3615.9729"
   inkscape:window-x="-8"
   inkscape:window-y="-8"
   inkscape:window-maximized="1"
   inkscape:current-layer="Layer_1" />
<style
   type="text/css"
   id="style4137">
	.st0{fill:#595959;}
</style>
<g
   id="XMLID_10_">
	<path
   id="XMLID_39_"
   class="st0"
   d="M-450.3,255.1h409.2c24.9,0,44.5-19.6,44.5-44.5s-19.6-44.5-44.5-44.5h-409.2   c-24.9,0-44.5,19.6-44.5,44.5S-475.2,255.1-450.3,255.1z" />
	<path
   id="XMLID_40_"
   class="st0"
   d="M-41.1,326.3h-409.2c-24.9,0-44.5,19.6-44.5,44.5s19.6,44.5,44.5,44.5h409.2   c24.9,0,44.5-19.6,44.5-44.5S-16.2,326.3-41.1,326.3z" />
	<path
   id="XMLID_41_"
   class="st0"
   d="M-41.1,486.4h-409.2c-24.9,0-44.5,19.6-44.5,44.5c0,24.9,19.6,44.5,44.5,44.5h409.2   c24.9,0,44.5-19.6,44.5-44.5C3.4,506-16.2,486.4-41.1,486.4z" />
</g>
<rect
   style="fill:#ffffff;fill-opacity:1"
   id="rect4701"
   width="667.44733"
   height="199.06323"
   x="345.04938"
   y="150.07401"
   ry="26.3745" /></svg>