<?xml version="1.0" encoding="UTF-8" standalone="no"?>
<!-- Generator: Adobe Illustrator 19.0.0, SVG Export Plug-In . SVG Version: 6.00 Build 0)  -->

<svg
   xmlns:dc="http://purl.org/dc/elements/1.1/"
   xmlns:cc="http://creativecommons.org/ns#"
   xmlns:rdf="http://www.w3.org/1999/02/22-rdf-syntax-ns#"
   xmlns:svg="http://www.w3.org/2000/svg"
   xmlns="http://www.w3.org/2000/svg"
   xmlns:sodipodi="http://sodipodi.sourceforge.net/DTD/sodipodi-0.dtd"
   xmlns:inkscape="http://www.inkscape.org/namespaces/inkscape"
   version="1.1"
   id="Layer_1"
   x="0px"
   y="0px"
   width="500px"
   height="500px"
   viewBox="-516.7 147.1 500 500"
   style="enable-background:new -516.7 147.1 500 500;"
   xml:space="preserve"
   inkscape:version="0.91 r13725"
   sodipodi:docname="navi_arrow-next.svg"><metadata
   id="metadata4735"><rdf:RDF><cc:Work
       rdf:about=""><dc:format>image/svg+xml</dc:format><dc:type
         rdf:resource="http://purl.org/dc/dcmitype/StillImage" /></cc:Work></rdf:RDF></metadata><defs
   id="defs4733" /><sodipodi:namedview
   pagecolor="#ffffff"
   bordercolor="#666666"
   borderopacity="1"
   objecttolerance="10"
   gridtolerance="10"
   guidetolerance="10"
   inkscape:pageopacity="0"
   inkscape:pageshadow="2"
   inkscape:window-width="1920"
   inkscape:window-height="1029"
   id="namedview4731"
   showgrid="false"
   inkscape:zoom="1.3350176"
   inkscape:cx="336.53418"
   inkscape:cy="285.7668"
   inkscape:window-x="-8"
   inkscape:window-y="-8"
   inkscape:window-maximized="1"
   inkscape:current-layer="Layer_1" />
<style
   type="text/css"
   id="style4726">
	.st0{fill:#595959;}
</style>

<path
   style="fill:#595959;fill-opacity:1"
   d="m -43.327974,279.03909 c -9.52645,-0.121 -19.70751,4.2536 -27.36328,12.69922 L -266.31234,507.54105 -461.59164,292.11331 c -12.89393,-14.22421 -32.95438,-16.90156 -44.97851,-6.00195 l -0.52539,0.47852 c -12.02414,10.89961 -11.32558,31.12539 1.56835,45.3496 L -293.91,565.3887 c 9.44772,10.42246 22.74008,14.63648 33.90235,11.86133 7.74205,-1.32097 15.49991,-5.46853 21.63476,-12.23633 L -26.757654,331.56448 c 12.89393,-14.22421 13.59445,-34.44999 1.57031,-45.3496 l -0.52539,-0.47657 c -4.88481,-4.42796 -11.09714,-6.61642 -17.61524,-6.69922 z"
   id="rect5283"
   inkscape:connector-curvature="0" /></svg>