<?xml version="1.0" encoding="UTF-8" standalone="no"?>
<!-- Created with Inkscape (http://www.inkscape.org/) -->

<svg
   xmlns:dc="http://purl.org/dc/elements/1.1/"
   xmlns:cc="http://creativecommons.org/ns#"
   xmlns:rdf="http://www.w3.org/1999/02/22-rdf-syntax-ns#"
   xmlns:svg="http://www.w3.org/2000/svg"
   xmlns="http://www.w3.org/2000/svg"
   xmlns:sodipodi="http://sodipodi.sourceforge.net/DTD/sodipodi-0.dtd"
   xmlns:inkscape="http://www.inkscape.org/namespaces/inkscape"
   width="500"
   height="500"
   viewBox="0 0 500.00001 499.99998"
   id="svg2998"
   version="1.1"
   inkscape:version="0.91 r13725"
   sodipodi:docname="icon_plus.svg">
  <defs
     id="defs3000">
    <pattern
       y="0"
       x="0"
       height="6"
       width="6"
       patternUnits="userSpaceOnUse"
       id="EMFhbasepattern" />
    <pattern
       y="0"
       x="0"
       height="6"
       width="6"
       patternUnits="userSpaceOnUse"
       id="EMFhbasepattern-5" />
    <pattern
       y="0"
       x="0"
       height="6"
       width="6"
       patternUnits="userSpaceOnUse"
       id="EMFhbasepattern-7" />
  </defs>
  <sodipodi:namedview
     id="base"
     pagecolor="#ffffff"
     bordercolor="#666666"
     borderopacity="1.0"
     inkscape:pageopacity="0.0"
     inkscape:pageshadow="2"
     inkscape:zoom="0.7"
     inkscape:cx="-57.112029"
     inkscape:cy="411.02582"
     inkscape:document-units="px"
     inkscape:current-layer="layer1"
     showgrid="false"
     fit-margin-top="0"
     fit-margin-left="0"
     fit-margin-right="0"
     fit-margin-bottom="0"
     inkscape:window-width="1920"
     inkscape:window-height="1029"
     inkscape:window-x="-8"
     inkscape:window-y="-8"
     inkscape:window-maximized="1" />
  <metadata
     id="metadata3003">
    <rdf:RDF>
      <cc:Work
         rdf:about="">
        <dc:format>image/svg+xml</dc:format>
        <dc:type
           rdf:resource="http://purl.org/dc/dcmitype/StillImage" />
        <dc:title />
      </cc:Work>
    </rdf:RDF>
  </metadata>
  <g
     inkscape:label="Layer 1"
     inkscape:groupmode="layer"
     id="layer1"
     transform="translate(2480.7707,-1842.3623)">
    <path
       inkscape:connector-curvature="0"
       id="path4138"
       d=""
       style="fill:#000000" />
    <path
       inkscape:connector-curvature="0"
       id="path4142"
       d=""
       style="fill:#000000" />
    <path
       inkscape:connector-curvature="0"
       id="path4146"
       d=""
       style="fill:#000000" />
    <path
       style="fill:#ffffff"
       d="m -2240.6058,2341.1422 c -13.705,-2.7093 -28.6,-13.9621 -35.1048,-26.5208 -5.8391,-11.2733 -6.463,-17.8981 -6.481,-68.8137 -0.012,-27.0751 -0.4503,-61.1661 -0.9796,-75.7577 l -0.962,-26.5303 -77.1677,0.2818 -77.1676,0.2817 -9.8647,-4.6677 c -11.7969,-5.5821 -22.789,-15.4363 -27.314,-24.4865 -12.7471,-25.4946 -0.9823,-58.6491 25.0778,-70.6713 l 9.1664,-4.2288 79.5382,-0.447 79.5382,-0.4471 0.4256,-80.1583 0.4256,-80.1584 3.5549,-7.2148 c 9.6553,-19.5955 34.9304,-32.1819 57.375,-28.5714 16.42,2.6413 25.7705,9.1534 34.4952,24.0239 7.3357,12.5034 7.9611,20.261 7.9888,99.0914 l 0.026,72.6737 78.2884,0.9132 c 75.7381,0.8834 78.5675,1.0174 86.8588,4.1161 27.0585,10.1123 40.1352,44.5876 26.809,70.6791 -4.3694,8.5551 -16.2548,19.6739 -25.8137,24.1487 l -8.4158,3.9397 -78.7819,0.426 -78.782,0.4261 -0.4482,78.7138 -0.4483,78.7138 -4.6286,9.7586 c -7.7219,16.28 -21.6701,27.5021 -37.8236,30.4311 -9.7043,1.7596 -10.747,1.7625 -19.3839,0.055 z"
       id="path4151"
       inkscape:connector-curvature="0" />
  </g>
</svg>
