<?xml version="1.0" encoding="UTF-8" standalone="no"?>
<!-- Created with Inkscape (http://www.inkscape.org/) -->

<svg
   xmlns:dc="http://purl.org/dc/elements/1.1/"
   xmlns:cc="http://creativecommons.org/ns#"
   xmlns:rdf="http://www.w3.org/1999/02/22-rdf-syntax-ns#"
   xmlns:svg="http://www.w3.org/2000/svg"
   xmlns="http://www.w3.org/2000/svg"
   xmlns:sodipodi="http://sodipodi.sourceforge.net/DTD/sodipodi-0.dtd"
   xmlns:inkscape="http://www.inkscape.org/namespaces/inkscape"
   width="500"
   height="500"
   viewBox="0 0 500.00001 499.99998"
   id="svg2998"
   version="1.1"
   inkscape:version="0.91 r13725"
   sodipodi:docname="icon_hand.svg">
  <defs
     id="defs3000">
    <pattern
       y="0"
       x="0"
       height="6"
       width="6"
       patternUnits="userSpaceOnUse"
       id="EMFhbasepattern" />
    <pattern
       y="0"
       x="0"
       height="6"
       width="6"
       patternUnits="userSpaceOnUse"
       id="EMFhbasepattern-5" />
    <pattern
       y="0"
       x="0"
       height="6"
       width="6"
       patternUnits="userSpaceOnUse"
       id="EMFhbasepattern-7" />
  </defs>
  <sodipodi:namedview
     id="base"
     pagecolor="#ffffff"
     bordercolor="#666666"
     borderopacity="1.0"
     inkscape:pageopacity="0.0"
     inkscape:pageshadow="2"
     inkscape:zoom="0.9899495"
     inkscape:cx="69.525688"
     inkscape:cy="320.90135"
     inkscape:document-units="px"
     inkscape:current-layer="layer1"
     showgrid="false"
     fit-margin-top="0"
     fit-margin-left="0"
     fit-margin-right="0"
     fit-margin-bottom="0"
     inkscape:window-width="1920"
     inkscape:window-height="1029"
     inkscape:window-x="-8"
     inkscape:window-y="-8"
     inkscape:window-maximized="1" />
  <metadata
     id="metadata3003">
    <rdf:RDF>
      <cc:Work
         rdf:about="">
        <dc:format>image/svg+xml</dc:format>
        <dc:type
           rdf:resource="http://purl.org/dc/dcmitype/StillImage" />
        <dc:title />
      </cc:Work>
    </rdf:RDF>
  </metadata>
  <g
     inkscape:label="Layer 1"
     inkscape:groupmode="layer"
     id="layer1"
     transform="translate(2480.7707,-1842.3623)">
    <path
       inkscape:connector-curvature="0"
       id="path4138"
       d=""
       style="fill:#000000" />
    <path
       inkscape:connector-curvature="0"
       id="path4142"
       d=""
       style="fill:#000000" />
    <path
       inkscape:connector-curvature="0"
       id="path4146"
       d=""
       style="fill:#000000" />
    <path
       style="fill:#ffffff;fill-opacity:1"
       d="m -2289.0665,2339.2547 c -15.4736,-4.4298 -31.5021,-16.3176 -45.6771,-33.8766 -20.8728,-25.856 -35.4707,-52.1878 -68.9474,-124.3683 -18.7291,-40.3828 -26.9266,-56.5313 -35.109,-69.1622 -7.5332,-11.6288 -10.7641,-20.1383 -11.4035,-30.0342 -1.1311,-17.5036 5.9681,-32.2564 20.0456,-41.6569 8.7228,-5.8249 16.9638,-8.0063 28.4968,-7.543 8.5833,0.3448 10.0559,0.6996 16.9592,4.0861 6.9133,3.3913 9.1179,5.3034 25.7698,22.3509 l 18.2101,18.6424 0.4791,-99.0532 0.4793,-99.053 2.5146,-6.4634 c 15.1902,-39.045 68.9851,-41.3648 86.9478,-3.7496 l 3.5043,7.3379 0.2759,55.7582 0.276,55.7582 4.9953,-2.2631 c 9.6923,-4.3915 24.3657,-4.7373 34.3866,-0.8107 10.3698,4.0634 20.5057,13.0416 25.2151,22.335 1.4853,2.931 3.0058,4.7907 3.6747,4.4944 10.8547,-4.811 14.1484,-5.717 22.3612,-6.1514 7.1229,-0.3769 10.0113,-0.084 15.4498,1.5682 12.1509,3.6908 23.3222,12.9427 28.564,23.6564 l 2.4775,5.064 5.9898,-2.803 c 8.1236,-3.8014 19.5057,-5.436 27.5005,-3.9492 17.5618,3.266 32.305,16.2335 37.3729,32.872 1.8655,6.1248 1.9106,8.4741 1.5775,82.424 -0.377,83.7389 -0.1019,79.6065 -6.5772,99.1216 -12.1356,36.5785 -43.3421,70.2831 -84.9264,91.7245 l -10.7734,5.5551 -72.1299,-0.068 c -65.6548,-0.062 -72.655,-0.2186 -77.9795,-1.7428 z"
       id="path4161"
       inkscape:connector-curvature="0" />
  </g>
</svg>
