<?xml version="1.0" encoding="UTF-8" standalone="no"?>
<!-- Generator: Adobe Illustrator 19.0.0, SVG Export Plug-In . SVG Version: 6.00 Build 0)  -->

<svg
   xmlns:dc="http://purl.org/dc/elements/1.1/"
   xmlns:cc="http://creativecommons.org/ns#"
   xmlns:rdf="http://www.w3.org/1999/02/22-rdf-syntax-ns#"
   xmlns:svg="http://www.w3.org/2000/svg"
   xmlns="http://www.w3.org/2000/svg"
   xmlns:sodipodi="http://sodipodi.sourceforge.net/DTD/sodipodi-0.dtd"
   xmlns:inkscape="http://www.inkscape.org/namespaces/inkscape"
   version="1.1"
   id="Layer_1"
   x="0px"
   y="0px"
   width="500px"
   height="500px"
   viewBox="-516.7 147.1 500 500"
   style="enable-background:new -516.7 147.1 500 500;"
   xml:space="preserve"
   inkscape:version="0.91 r13725"
   sodipodi:docname="exam_feedback.svg"><metadata
   id="metadata4203"><rdf:RDF><cc:Work
       rdf:about=""><dc:format>image/svg+xml</dc:format><dc:type
         rdf:resource="http://purl.org/dc/dcmitype/StillImage" /></cc:Work></rdf:RDF></metadata><defs
   id="defs4201" /><sodipodi:namedview
   pagecolor="#ffffff"
   bordercolor="#666666"
   borderopacity="1"
   objecttolerance="10"
   gridtolerance="10"
   guidetolerance="10"
   inkscape:pageopacity="0"
   inkscape:pageshadow="2"
   inkscape:window-width="1920"
   inkscape:window-height="1027"
   id="namedview4199"
   showgrid="false"
   inkscape:zoom="0.944"
   inkscape:cx="188.0648"
   inkscape:cy="202.52788"
   inkscape:window-x="-8"
   inkscape:window-y="-8"
   inkscape:window-maximized="1"
   inkscape:current-layer="g4156" />
<style
   type="text/css"
   id="style4194">
	.st0{fill:#595959;}
</style>

<g
   id="g4156"
   transform="matrix(5.0116837,0,0,5.0116837,-377.53969,245.95404)"><path
     id="path4144"
     d="m 60.13805,-16.626043 -75.922229,0 c -6.584453,0 -11.921821,5.337 -11.921821,11.9130005 l 0,46.1689995 c 0,6.588 5.337368,11.918 11.921821,11.918 l 10.2157036,0 0,20.158 c 0,2.479 2.0161388,4.494 4.5003099,4.494 1.27008747,0 2.4181665,-0.523 3.2332227,-1.365 l 0.006,0 23.2215998,-23.287 34.746393,0 c 6.582453,0 11.921821,-5.33 11.921821,-11.918 l 0,-46.1689995 C 72.059871,-11.289043 66.720503,-16.626043 60.13805,-16.626043 Z m -60.51816812,40.806 c -3.29922718,0 -5.97641158,-2.677 -5.97641158,-5.976 0,-3.299 2.6771844,-5.976 5.97641158,-5.976 3.29922722,0 5.97641162,2.677 5.97641162,5.976 0,3.298 -2.6771844,5.976 -5.97641162,5.976 z m 23.27360312,0 c -3.299228,0 -5.973412,-2.677 -5.973412,-5.976 0,-3.299 2.674184,-5.976 5.973412,-5.976 3.299227,0 5.973411,2.677 5.973411,5.976 0,3.298 -2.674184,5.976 -5.973411,5.976 z m 23.609626,0 c -3.299228,0 -5.976412,-2.677 -5.976412,-5.976 0,-3.299 2.677184,-5.976 5.976412,-5.976 3.299227,0 5.976411,2.677 5.976411,5.976 0,3.298 -2.677184,5.976 -5.976411,5.976 z"
     inkscape:connector-curvature="0"
     style="fill:#54a7da;fill-opacity:1" /></g></svg>