<?xml version="1.0" encoding="UTF-8" standalone="no"?>
<!-- Generator: Adobe Illustrator 19.0.0, SVG Export Plug-In . SVG Version: 6.00 Build 0)  -->

<svg
   xmlns:dc="http://purl.org/dc/elements/1.1/"
   xmlns:cc="http://creativecommons.org/ns#"
   xmlns:rdf="http://www.w3.org/1999/02/22-rdf-syntax-ns#"
   xmlns:svg="http://www.w3.org/2000/svg"
   xmlns="http://www.w3.org/2000/svg"
   xmlns:sodipodi="http://sodipodi.sourceforge.net/DTD/sodipodi-0.dtd"
   xmlns:inkscape="http://www.inkscape.org/namespaces/inkscape"
   version="1.1"
   id="Layer_1"
   x="0px"
   y="0px"
   width="500px"
   height="500px"
   viewBox="-516.7 147.1 500 500"
   style="enable-background:new -516.7 147.1 500 500;"
   xml:space="preserve"
   inkscape:version="0.91 r13725"
   sodipodi:docname="exam_starstroke.svg"><metadata
   id="metadata4203"><rdf:RDF><cc:Work
       rdf:about=""><dc:format>image/svg+xml</dc:format><dc:type
         rdf:resource="http://purl.org/dc/dcmitype/StillImage" /></cc:Work></rdf:RDF></metadata><defs
   id="defs4201" /><sodipodi:namedview
   pagecolor="#ffffff"
   bordercolor="#666666"
   borderopacity="1"
   objecttolerance="10"
   gridtolerance="10"
   guidetolerance="10"
   inkscape:pageopacity="0"
   inkscape:pageshadow="2"
   inkscape:window-width="1920"
   inkscape:window-height="1027"
   id="namedview4199"
   showgrid="false"
   inkscape:zoom="0.70710678"
   inkscape:cx="-226.72115"
   inkscape:cy="211.62751"
   inkscape:window-x="-8"
   inkscape:window-y="-8"
   inkscape:window-maximized="1"
   inkscape:current-layer="Layer_1" />
<style
   type="text/css"
   id="style4194">
	.st0{fill:#595959;}
</style>

<path
   style="color:#000000;clip-rule:nonzero;display:inline;overflow:visible;visibility:visible;opacity:1;isolation:auto;mix-blend-mode:normal;color-interpolation:sRGB;color-interpolation-filters:linearRGB;solid-color:#000000;solid-opacity:1;fill:#ffda51;fill-opacity:1;fill-rule:nonzero;stroke:none;stroke-width:2;stroke-linecap:round;stroke-linejoin:miter;stroke-miterlimit:4;stroke-dasharray:none;stroke-dashoffset:0;stroke-opacity:1;color-rendering:auto;image-rendering:auto;shape-rendering:auto;text-rendering:auto;enable-background:accumulate"
   d="M 250.10156 11.529297 C 240.18292 11.529297 176.89741 156.70123 168.87305 162.53125 C 160.84873 168.36126 3.2251663 183.68793 0.16015625 193.12109 C -2.9048638 202.55426 115.60685 307.60394 118.67188 317.03711 C 121.73691 326.47028 87.604556 481.11529 95.628906 486.94531 C 103.65323 492.77533 240.18294 412.52734 250.10156 412.52734 C 260.02019 412.52734 396.54986 492.77535 404.57422 486.94531 C 412.59854 481.11529 378.46622 326.47029 381.53125 317.03711 C 384.59625 307.60393 503.10797 202.55426 500.04297 193.12109 C 496.97794 183.68791 339.35246 168.36126 331.32812 162.53125 C 323.30378 156.70123 260.02017 11.529297 250.10156 11.529297 z M 250.09961 25.802734 C 259.4231 25.802734 318.91024 163.18029 326.45312 168.69727 C 333.99599 174.21425 482.16184 188.71785 485.04297 197.64453 C 487.92407 206.5712 376.52368 305.97958 373.64258 314.90625 C 370.76145 323.83292 402.84559 470.17637 395.30273 475.69336 C 387.75983 481.21036 259.42312 405.26953 250.09961 405.26953 C 240.77611 405.26953 112.4374 481.21033 104.89453 475.69336 C 97.351641 470.17637 129.43582 323.83291 126.55469 314.90625 C 123.67358 305.97959 12.273177 206.5712 15.154297 197.64453 C 18.035407 188.71787 166.20128 174.21425 173.74414 168.69727 C 181.28704 163.18029 240.77609 25.802734 250.09961 25.802734 z "
   transform="translate(-516.70001,147.10001)"
   id="path2160" /></svg>