<?xml version="1.0" encoding="UTF-8" standalone="no"?>
<!-- Generator: Adobe Illustrator 19.0.0, SVG Export Plug-In . SVG Version: 6.00 Build 0)  -->

<svg
   xmlns:dc="http://purl.org/dc/elements/1.1/"
   xmlns:cc="http://creativecommons.org/ns#"
   xmlns:rdf="http://www.w3.org/1999/02/22-rdf-syntax-ns#"
   xmlns:svg="http://www.w3.org/2000/svg"
   xmlns="http://www.w3.org/2000/svg"
   xmlns:sodipodi="http://sodipodi.sourceforge.net/DTD/sodipodi-0.dtd"
   xmlns:inkscape="http://www.inkscape.org/namespaces/inkscape"
   version="1.1"
   id="Layer_1"
   x="0px"
   y="0px"
   width="500px"
   height="500px"
   viewBox="-516.7 147.1 500 500"
   style="enable-background:new -516.7 147.1 500 500;"
   xml:space="preserve"
   inkscape:version="0.91 r13725"
   sodipodi:docname="exam_feedback_close.svg"><metadata
   id="metadata4203"><rdf:RDF><cc:Work
       rdf:about=""><dc:format>image/svg+xml</dc:format><dc:type
         rdf:resource="http://purl.org/dc/dcmitype/StillImage" /></cc:Work></rdf:RDF></metadata><defs
   id="defs4201" /><sodipodi:namedview
   pagecolor="#ffffff"
   bordercolor="#666666"
   borderopacity="1"
   objecttolerance="10"
   gridtolerance="10"
   guidetolerance="10"
   inkscape:pageopacity="0"
   inkscape:pageshadow="2"
   inkscape:window-width="1920"
   inkscape:window-height="1027"
   id="namedview4199"
   showgrid="false"
   inkscape:zoom="0.7006647"
   inkscape:cx="372.51435"
   inkscape:cy="546.22962"
   inkscape:window-x="-8"
   inkscape:window-y="-8"
   inkscape:window-maximized="1"
   inkscape:current-layer="g4156" />
<style
   type="text/css"
   id="style4194">
	.st0{fill:#595959;}
</style>

<g
   id="g4156"
   transform="matrix(5.0116837,0,0,5.0116837,-377.53969,245.95404)"><path
     style="fill:#54a7da;fill-opacity:1"
     d="M 60.054688 15.529297 C 27.055492 15.529297 0.30664062 42.27754 0.30664062 75.234375 L 0.30664062 306.61914 C 0.30664062 339.63611 27.055492 366.34766 60.054688 366.34766 L 111.25195 366.34766 L 111.25195 467.37305 C 111.25195 479.79701 121.35676 489.89453 133.80664 489.89453 C 140.17192 489.89453 145.92691 487.27453 150.01172 483.05469 L 150.04102 483.05469 L 266.41992 366.34766 L 440.55859 366.34766 C 473.54777 366.34766 500.30664 339.63611 500.30664 306.61914 L 500.30664 75.234375 C 500.30163 42.27754 473.54191 15.529297 440.55273 15.529297 L 60.054688 15.529297 z M 191.57617 119.01367 C 192.29575 119.02956 193.02298 119.08962 193.75586 119.19727 C 198.88133 119.95011 199.97898 120.8633 221.68164 142.44141 L 244.27148 164.90234 L 266.86328 142.44141 C 288.49712 120.93172 289.67624 119.94846 294.73828 119.20508 C 306.61103 117.4615 316.88618 127.73659 315.14258 139.60938 C 314.39921 144.67138 313.41397 145.85054 291.9043 167.48438 L 269.44531 190.07422 L 291.9043 212.66602 C 313.41397 234.29986 314.39921 235.479 315.14258 240.54102 C 316.88618 252.41379 306.61103 262.6889 294.73828 260.94531 C 289.6761 260.20191 288.49623 259.21772 266.84961 237.69531 L 244.24609 215.22266 L 222.21484 237.23242 C 196.27334 263.14964 193.84172 264.49212 182.87305 258.96094 C 176.05711 255.52385 172.28067 248.17897 173.40234 240.54102 C 174.14575 235.479 175.12901 234.29986 196.63867 212.66602 L 219.09961 190.07422 L 196.63867 167.48438 C 175.06057 145.78171 174.14738 144.68408 173.39453 139.55859 C 171.77982 128.56539 180.78256 118.77535 191.57617 119.01367 z "
     transform="matrix(0.19953374,0,0,0.19953374,-27.76718,-19.724715)"
     id="path4144" /></g></svg>